<?xml version="1.0" standalone="no"?>
<!DOCTYPE svg PUBLIC "-//W3C//DTD SVG 20010904//EN"
 "http://www.w3.org/TR/2001/REC-SVG-20010904/DTD/svg10.dtd">
<svg version="1.0" xmlns="http://www.w3.org/2000/svg"
 width="256.000000pt" height="256.000000pt" viewBox="0 0 256.000000 256.000000"
 preserveAspectRatio="xMidYMid meet">

<g transform="translate(0.000000,256.000000) scale(0.100000,-0.100000)"
fill="#000000" stroke="none">
<path d="M1116 2549 c-483 -67 -895 -404 -1046 -857 -50 -152 -64 -242 -64
-412 0 -171 14 -260 65 -415 121 -362 433 -673 797 -795 152 -50 242 -64 412
-64 274 0 482 62 710 212 277 183 475 480 547 822 24 117 24 363 0 480 -57
271 -178 492 -371 678 -182 175 -391 286 -641 337 -96 20 -314 28 -409 14z
m289 -173 c172 -46 319 -188 369 -356 23 -76 21 -212 -4 -292 -39 -126 -143
-249 -260 -308 -76 -38 -115 -47 -257 -60 -271 -23 -468 -150 -579 -375 -99
-200 -98 -423 2 -617 l16 -31 -59 42 c-177 124 -336 338 -409 553 -83 246 -68
551 41 799 123 282 383 515 678 609 146 46 362 63 462 36z m-37 -1537 c29 -15
54 -37 74 -68 26 -41 29 -53 26 -113 -3 -57 -8 -73 -34 -105 -81 -102 -227
-102 -308 0 -26 32 -31 48 -34 105 -3 60 0 72 26 113 54 84 158 112 250 68z"/>
<path d="M1221 2075 c-83 -26 -131 -95 -131 -187 0 -188 250 -258 352 -99 26
41 29 53 26 113 -3 57 -8 73 -34 105 -53 66 -136 93 -213 68z"/>
</g>
</svg>
